<svg xmlns="http://www.w3.org/2000/svg" viewBox="0 0 222.72 48"><defs><style>.a{fill:#fff;}</style></defs><g transform="translate(0 0)"><g transform="translate(48.256 10.368)"><path class="a" d="M33.84,21.536c0,.576.177,1.152.177,1.536A3.162,3.162,0,0,0,37.2,24.8c1.061,0,2.828-.384,2.828-2.112,0-1.152-.884-1.536-4.6-2.688-3.358-.96-7.424-2.112-7.424-6.72,0-5.376,4.242-7.68,8.838-7.68,4.773,0,8.838,1.92,9.015,7.68H39.5a1.764,1.764,0,0,0-.707-1.92,3.353,3.353,0,0,0-1.944-.576c-.884,0-2.475.192-2.475,1.536.177,1.728,3.182,2.112,6.363,2.88,3,.96,6.187,2.5,6.187,6.72,0,6.144-5.126,8.064-10.075,8.064-2.475,0-9.545-.96-9.545-8.448Z" transform="translate(-27.3 -5.216)"/><path class="a" d="M38.6,5.8h6.01v8.256h0a5.545,5.545,0,0,1,4.949-2.3,5.348,5.348,0,0,1,5.48,5.76V29.224h-6.01V20.392c0-1.92-.177-3.264-1.944-3.264-1.061,0-2.475.576-2.475,3.264v8.832H38.6V5.8Z" transform="translate(-18.626 -5.032)"/><path class="a" d="M57.061,26.756c-6.01,0-8.661-4.224-8.661-9.024S51.051,8.9,57.061,8.9s8.661,4.224,8.661,8.832C65.723,22.532,63.071,26.756,57.061,26.756Zm0-13.248c-2.3,0-2.651,2.3-2.651,4.224,0,1.728.354,4.224,2.651,4.224s2.651-2.5,2.651-4.224S59.359,13.508,57.061,13.508Z" transform="translate(-11.103 -2.18)"/><path class="a" d="M58.8,9.284h5.833V11.2h0c.707-1.152,1.591-2.3,4.6-2.3,4.419,0,6.717,4.8,6.717,9.024,0,4.032-1.414,8.832-6.717,8.832a4.717,4.717,0,0,1-4.242-2.3h0v7.3h-6.01V9.284Zm8.485,12.672c2.121,0,2.651-2.112,2.651-4.224s-.53-4.224-2.651-4.224-2.651,2.112-2.651,4.224S65.163,21.956,67.285,21.956Z" transform="translate(-3.12 -2.18)"/><path class="a" d="M85.416,27.1a7.214,7.214,0,0,1-6.187,2.88c-6.363,0-10.429-5.376-10.429-12.1C68.8,9.048,74.633,5.4,79.582,5.4c5.48,0,9.015,3.264,10.075,8.832H83.294a3.17,3.17,0,0,0-3.182-2.88c-4.6,0-4.419,5.184-4.419,6.72,0,2.112.884,5.952,4.949,5.952a3.336,3.336,0,0,0,3.535-2.5h-3V16.536h8.838V29.592H85.769Z" transform="translate(4.556 -5.4)"/><path class="a" d="M97.362,22.44a7.1,7.1,0,0,0,.707,3.84H91.882a4.57,4.57,0,0,1-.177-1.536h0a6.381,6.381,0,0,1-5.126,2.112c-3,0-5.48-1.536-5.48-5.184,0-5.376,5.833-5.184,8.838-5.76.884-.192,1.591-.384,1.591-1.536s-1.061-1.536-1.944-1.536c-1.768,0-2.3.96-2.3,1.728H81.63C81.807,9.768,86.049,9,89.761,9c7.6,0,7.424,3.456,7.424,6.72v6.72ZM91.706,18.6a10.775,10.775,0,0,1-2.3.768c-1.414.384-2.121.768-2.121,1.92,0,.768.707,1.536,1.944,1.536a2.422,2.422,0,0,0,2.475-2.688Z" transform="translate(13.998 -2.088)"/><path class="a" d="M91.4,5.8h6.01V29.224H91.4Z" transform="translate(21.904 -5.032)"/><path class="a" d="M95.9,5.8h6.01V29.224H95.9Z" transform="translate(25.359 -5.032)"/><path class="a" d="M105.833,19.268c.177,1.92,1.237,3.264,3,3.264a2.667,2.667,0,0,0,2.475-1.152h5.656c-1.237,3.648-4.6,5.376-8.131,5.376-5.126,0-8.838-3.264-8.838-8.832,0-4.992,3.358-9.024,8.308-9.024,6.187,0,9.015,3.84,9.015,10.368Zm5.656-3.456a2.725,2.725,0,0,0-2.651-2.88q-2.651,0-3.182,2.88Z" transform="translate(28.506 -2.18)"/><path class="a" d="M110.4,9.284h5.833v2.688h0c1.061-2.112,2.3-3.072,4.419-3.072a5.556,5.556,0,0,1,1.768.192v5.76a6.428,6.428,0,0,0-2.3-.384c-2.3,0-3.712,1.536-3.712,5.184v6.72H110.4Z" transform="translate(36.489 -2.18)"/><path class="a" d="M128.827,24.844a22.44,22.44,0,0,1-1.944,4.8c-1.591,2.112-4.066,2.112-6.363,2.112h-2.828V26.572H119.1a5.037,5.037,0,0,0,1.768-.192c.354-.192.53-.576.53-1.344s-2.3-7.1-2.651-8.064L116.1,9.1h6.363l2.475,9.792h0L127.413,9.1H133.6Z" transform="translate(40.864 -1.996)"/></g><path class="a" d="M40.3,12.864a10.356,10.356,0,0,1,2.121.96C38.888,5.568,31.11,0,22.272,0,9.9,0,0,10.752,0,24S9.9,48,22.272,48c9.9,0,18.206-6.912,21.211-16.512a4.239,4.239,0,0,1-3.358.768,5.332,5.332,0,0,1-4.066-4.608H35a4.122,4.122,0,0,1-3.182-4.8,3.762,3.762,0,0,1,2.828-3.264,10.132,10.132,0,0,1-.177-2.3C35,14.208,37.65,12.288,40.3,12.864ZM12.2,8.256a23.134,23.134,0,0,0,1.768-3.072,4.06,4.06,0,0,0,.707-1.152A16.8,16.8,0,0,1,18.03,2.88c2.3-.576,3.712-.384,3.712-.576a16.414,16.414,0,0,1,4.066.192,9.527,9.527,0,0,0,2.475.768A7.2,7.2,0,0,0,27.4,4.416c-.884,1.152-1.768,2.5-2.475,3.648a21.374,21.374,0,0,0-2.651-.576,19.6,19.6,0,0,0-9.545.96c-.354,0-.53.192-.707.192A.62.62,0,0,1,12.2,8.256Zm1.237,17.28a7.058,7.058,0,0,0-1.768.768,10.74,10.74,0,0,1-.884-2.112,13.22,13.22,0,0,1-.707-2.5,8.787,8.787,0,0,1,3-1.92,13.016,13.016,0,0,1,6.187-.96c.707,0,1.414.192,1.768.192-.354,1.152-.707,2.3-1.061,3.648-.177.96-.53,1.92-.707,2.88h-.354A7.662,7.662,0,0,0,13.434,25.536Zm4.949,2.3-.53,2.88a13.315,13.315,0,0,0-2.475.192c-.177,0-.53.192-.707.192a28.081,28.081,0,0,1-1.768-2.5c.177-.192.53-.192.707-.384a11.778,11.778,0,0,1,4.066-.576C18.03,27.648,18.206,27.648,18.383,27.84ZM9.545,18.432a14.75,14.75,0,0,1,.177-2.88,10.093,10.093,0,0,1,.884-3.264,6.3,6.3,0,0,1,1.944-.96,17.555,17.555,0,0,1,8.308-1.344c1.414.192,2.3.384,2.828.384-.177.576-1.061,2.88-2.121,5.76-.354,0-.884-.192-1.414-.192a18.093,18.093,0,0,0-7.424.768A12.994,12.994,0,0,0,9.545,18.432Zm11.313,9.984a9.3,9.3,0,0,1,3.535,2.3,16.907,16.907,0,0,1,1.591,1.92c-1.237.576-2.475,1.152-3.535,1.536a8.533,8.533,0,0,0-1.414-2.112c-.177-.192-.53-.384-.707-.576A10.284,10.284,0,0,1,20.858,28.416Zm3.712-.576a11.409,11.409,0,0,0-3-1.92,15.094,15.094,0,0,1,.707-2.688c.354-1.344.707-2.688,1.061-3.84.177,0,.53.192.707.192a14.144,14.144,0,0,1,4.773,3.264l.53.576a6.522,6.522,0,0,0,1.237,3.84l.884.96c-.53.576-1.237,1.152-1.768,1.728-.707.576-1.414.96-2.121,1.536A19.619,19.619,0,0,0,24.57,27.84ZM9.545,7.488l1.591-1.152A10.49,10.49,0,0,0,9.9,8.064c-.884,1.344-1.414,2.3-1.414,2.3v.192a18.088,18.088,0,0,0-3.535,3.072A19.78,19.78,0,0,1,9.545,7.488ZM3.358,29.568a17.358,17.358,0,0,1,.884-9.984A19.491,19.491,0,0,1,7.07,14.976a18.215,18.215,0,0,0,0,5.376A10.309,10.309,0,0,0,4.773,24,19.7,19.7,0,0,0,3.358,29.568Zm4.066.96A14.9,14.9,0,0,0,6.363,34.56a12.641,12.641,0,0,1,.354-8.832c.354-.768.707-1.344,1.061-2.112.177.384.177.768.354,1.152.354.96.884,1.92,1.237,2.88A15.9,15.9,0,0,0,7.424,30.528Zm2.3,8.064a8.393,8.393,0,0,1-.177-6.528,8.533,8.533,0,0,1,1.414-2.112A32.581,32.581,0,0,0,12.9,32.64a.8.8,0,0,0-.53.768,5.8,5.8,0,0,0-.354,3.84l-1.768.96A2.2,2.2,0,0,1,9.722,38.592Zm5.48,5.184c-.177,0-.354-.192-.707-.192h0c-.53-.192-1.061-.576-1.591-.768a9.592,9.592,0,0,1-1.944-1.92h.177a9.379,9.379,0,0,1,2.121-.96,8.4,8.4,0,0,0,2.121,1.728c-.177.768-.354,1.344-.354,1.344A1.188,1.188,0,0,1,15.2,43.776Zm5.656.768a12.337,12.337,0,0,1-2.651.192,3.082,3.082,0,0,1-1.237-.384l.707-1.152s.177-.576.354-1.344h1.414a.617.617,0,0,0,.53-.192,24.913,24.913,0,0,1,1.237,2.3,2.389,2.389,0,0,1,.354.576Zm.884-6.336H20.5a2.622,2.622,0,0,1-1.768,1.152,4.01,4.01,0,0,1-4.242-2.112,3.034,3.034,0,0,1,0-2.5,2.431,2.431,0,0,1,1.414-1.344,3.263,3.263,0,0,1,2.121,0,4.767,4.767,0,0,1,2.121.96A7.505,7.505,0,0,1,21.388,36.1a3.473,3.473,0,0,1,.354,2.112Zm5.833,2.3h0a3.218,3.218,0,0,0-1.414.576c-.177,0-.177,0-.177.192a9.783,9.783,0,0,1-1.061,1.344,7.531,7.531,0,0,1-1.237.96,3.251,3.251,0,0,1-.177-.768s-.53-.96-1.237-2.3a2.237,2.237,0,0,0,.707-.768v-.192a1.1,1.1,0,0,0-.707-1.152.6.6,0,0,1,.354-.192,3.083,3.083,0,0,0,.53-1.344h.177A22.872,22.872,0,0,0,27.4,35.136a1.582,1.582,0,0,1,.177.576A13.76,13.76,0,0,1,27.575,40.512Zm12.2-6.912h.53a4.06,4.06,0,0,1-.707,1.152,4.06,4.06,0,0,1-.707,1.152s0-.192-.177-.192a6.316,6.316,0,0,0,.707-1.344C39.595,34.176,39.595,33.984,39.771,33.6Zm-6.717,3.264a12.089,12.089,0,0,0,.884-6.528V29.76a5.227,5.227,0,0,0,1.237.192h.177a4,4,0,0,0,.707,1.536,4.5,4.5,0,0,0,2.828,1.92h.354a18.462,18.462,0,0,0-.354,2.112h-.177c-.53.192-1.237,1.152-1.944,1.728l-.354.384a9.341,9.341,0,0,1-2.3,2.88,15.233,15.233,0,0,1-3.535,2.5,22.407,22.407,0,0,0,1.944-2.5,1.007,1.007,0,0,0,.177-.576c.354-1.536.177-2.112-.177-2.3C32.7,37.632,32.878,37.44,33.054,36.864ZM32.7,31.1a16.862,16.862,0,0,1-.354,6.72h-.177c-.53,0-1.061.768-1.591,1.152-.177.192-.177.192-.177.384a12.217,12.217,0,0,1-1.591,2.112l-.53.576a1.942,1.942,0,0,0-.354-1.344c.177-.192.177-.384.354-.576a7.905,7.905,0,0,0,.53-4.608c0-.384-.177-.768-.177-1.152.884-.576,1.591-1.152,2.475-1.728A6.3,6.3,0,0,1,32.7,31.1Zm-3-9.984a4.911,4.911,0,0,0-1.414-1.344,12.431,12.431,0,0,0-4.419-2.688A52.341,52.341,0,0,1,25.807,11.9a1.582,1.582,0,0,1,.177-.576c.354.192.884.384,1.237.576a17.241,17.241,0,0,1,5.126,3.264,5.94,5.94,0,0,0,0,2.5v.384A4.482,4.482,0,0,0,29.7,21.12Zm3.712-8.448c-.177-.192-.354-.384-.53-.384A26.608,26.608,0,0,0,27.045,8.64c0-.192.177-.192.177-.384a18.93,18.93,0,0,1,1.414-3.072,11.743,11.743,0,0,0,.707-1.536,22.981,22.981,0,0,1,4.773,2.5,26.84,26.84,0,0,1,4.6,4.416,3.193,3.193,0,0,0-1.414-.192A5.633,5.633,0,0,0,33.408,12.672Z" transform="translate(0 0)"/></g></svg>